#!OML:ASF F:\VICON\USERDATA\INSTALL\rory3\rory3.ASF
:FULLY-SPECIFIED
:DEGREES
26
root 0.6299496945139255 17.280384989840805 1.0875762250800483 -1.6221192533656403 -4.147701663450723 -7.128737742280684
lfemur -25.82524082086445 -5.723733449745488 -8.798174878060166
ltibia 11.18486301585424
lfoot -11.292925679023377 1.3935548364726826
ltoes -5.848202467469756
rfemur 3.842482003296963 6.8889334923897705 34.911975101920376
rtibia 26.30869613377279
rfoot -18.299876461900936 -6.662851354770156
rtoes 0.37178349111279285
lowerback 11.506406842032131 2.0413583907612214 5.623765305357129
upperback -0.37186148825694787 3.0692835242925414 1.9721826721898967
thorax -5.911902634578197 1.3714733767698104 -1.797403112915205
lowerneck -15.675767217149241 -3.221010760931079 -1.317167592587352
upperneck 21.675664148664648 -4.15710672970909 -0.08443303718186121
head 9.551522787748738 -2.046929512686618 -0.43503098406861557
lclavicle -1.3807733405418945e-15 -1.8374940383761743e-15
lhumerus -37.15880609398549 14.315912940418638 79.23090367940767
lradius 14.638973700499152
lwrist 1.0086692363886889
lhand -25.772638648747346 24.796871662143165
lfingers 7.125019999999999
lthumb 0.2529362906833912 53.956809949921485
rclavicle -1.377455834480003e-15 -1.8353396520793033e-15
rhumerus -19.752450403459797 -11.584490608909908 -80.94320010523752
rradius 31.434211472820664
rwrist -2.8689504369543926
rhand -18.39425452918194 23.506328773208807
rfingers 7.125019999999999
rthumb 7.984837997100742 -6.504175388817233
27
root 0.7156792253849127 17.19518248198704 0.8979959606746517 -1.736043317777951 -4.3151902516628775 -7.21441466735045
lfemur -25.901975922485896 -4.328341935027496 -9.998971454827277
ltibia 12.439333059419354
lfoot -9.622299370616464 0.251280549228623
ltoes -5.7701538982496885
rfemur 5.3745278879102525 7.116868925554323 34.85515475179563
rtibia 27.977613337151766
rfoot -17.36333645268504 -5.673527909721356
rtoes -1.733778515345116
lowerback 10.97828034846293 2.0460840547403265 5.446648965093235
upperback -0.3643498111171334 3.1075367121656927 1.8381614483683337
thorax -5.825150065636331 1.3901168770636694 -1.7336368584457837
lowerneck -15.541985615908022 -3.281633090026255 -1.1644396737150442
upperneck 21.426114404095166 -4.3011257970533165 -0.023074335665028423
head 9.536832323756208 -2.105293032172769 -0.452230670557149
lclavicle -1.3813372236111737e-15 -1.8380072942067946e-15
lhumerus -37.6438485921198 14.798017279325922 78.89632378071244
lradius 12.984398522213807
lwrist -2.9228518068394203
lhand -25.98872713585894 23.78670870103054
lfingers 7.125019999999999
lthumb 0.27153039007233537 53.161528676280554
rclavicle -1.3779203890791601e-15 -1.8356589642677057e-15
rhumerus -19.801272431554928 -12.389519461704758 -80.71852612006343
rradius 31.855729800766397
rwrist -2.859509671185357
rhand -18.634716054830477 23.11850990884269
rfingers 7.125019999999999
rthumb 7.816753497336798 -6.799253390683057
28
root 0.816762675642403 17.24106777499857 2.3654130090372387 -2.0737368841698234 -4.466164563029754 -6.904243734652066
lfemur -26.32084453571442 -3.501878321518026 -11.595063833921879
ltibia 17.776916178137483
lfoot -7.800472771006636 -2.4014382824699396
ltoes -6.863570972012728
rfemur 6.718951887549414 7.360679199054182 34.44110070518297
rtibia 30.90695662978893
rfoot -15.10579056517334 -4.3603723275404285
rtoes -3.9803049423937464
lowerback 10.441486020383394 2.0000964523685396 5.05655470785837
upperback -0.3741719694506914 3.1133274671681876 1.678023655476698
thorax -5.753075288813147 1.4012573901677117 -1.6807622021275586
lowerneck -15.411003353279655 -3.3640311474841855 -1.1061736071442527
upperneck 21.496724290000355 -4.518391168100077 0.11110866749450063
head 9.572999993626912 -2.170489001376751 -0.4397583451184582
lclavicle -1.3810122364189954e-15 -1.8376883868295932e-15
lhumerus -37.64147116572752 14.900584544466387 78.85573045386482
lradius 12.223704344578664
lwrist -5.004090583391305
lhand -26.149703137884085 23.85500557445187
lfingers 7.125019999999999
lthumb 0.4940877371461041 53.78192298619097
rclavicle -1.3782621352000037e-15 -1.835922222035058e-15
rhumerus -20.793468605363344 -14.027772511900404 -80.23042238508174
rradius 31.80589871956064
rwrist -2.2676533760860664
rhand -18.92276756981042 22.884008065723823
rfingers 7.125019999999999
rthumb 7.5346534226713295 -7.141355668567962
29
root 0.8223183462728738 17.749246031088756 5.173687427575 -2.1893291121795055 -4.29586840746818 -2.8770897810761924
lfemur -25.189160815217143 -4.282839346611509 -16.681352288504982
ltibia 21.73858038020061
lfoot -5.1112587997065155 -4.854695838857335
ltoes -4.771261143538021
rfemur 6.712679056078814 6.406637738499477 29.260006930992866
rtibia 36.079889597813875
rfoot -10.712671236012923 -2.7517833283957933
rtoes -4.943360850193342
lowerback 9.421642252350587 1.9899104231198759 2.4783846180018463
upperback -0.1757669598598551 2.726004570314186 1.0218420445926277
thorax -5.4821457894368075 1.2702279455943717 -1.2799415639964173
lowerneck -15.17072730419078 -3.4158511342562736 -1.136190356307944
upperneck 22.088323022215658 -4.6388776253506805 0.25129582694245617
head 9.72617992342146 -2.2122466203815367 -0.41431634334693224
lclavicle -1.3828769087866436e-15 -1.8394495940305397e-15
lhumerus -37.44356672296334 14.385563047943112 79.12946810590579
lradius 12.00190070094107
lwrist -5.728579572232816
lhand -25.72370880141248 24.165428304550453
lfingers 7.125019999999999
lthumb 1.086644861158669 54.50966459688329
rclavicle -1.378834175137448e-15 -1.836358565100103e-15
rhumerus -22.52102044486437 -15.960817521645186 -79.60037948505308
rradius 31.567041303374648
rwrist -1.7544916591599575
rhand -18.605093245598383 23.010198104432956
rfingers 7.125019999999999
rthumb 7.723355703287435 -6.984066721056786
30
root 0.9001583630581524 17.950476842422557 3.604751938320213 -2.358601625348912 -3.9775575653997883 -1.3053934151962274
lfemur -22.31653046527636 -3.9528731231330285 -19.72107177310348
ltibia 24.18852372474937
lfoot -3.4561675265218135 -6.478534313522821
ltoes -3.753806232963471
rfemur 3.3369795968165885 4.822477355036756 25.664465784687536
rtibia 44.32846254444267
rfoot -3.4208993805943884 -1.2666262299286828
rtoes -3.398744606538255
lowerback 8.975785306509566 1.946430254203755 1.5223658257291206
upperback -0.15610463496220797 2.6039221120285516 0.5085649066891245
thorax -5.516482649961341 1.2306211441072132 -0.9850938750201308
lowerneck -15.165873404544897 -3.40827645674809 -1.1748350252113031
upperneck 22.672718428354713 -4.6599185856855465 0.3218959250452422
head 9.883075684200756 -2.2024670853536925 -0.3919369875206641
lclavicle -1.3835960806466967e-15 -1.8401068949829953e-15
lhumerus -36.742244672406265 13.6952064320635 79.55993665172258
lradius 12.22972283358258
lwrist -4.267552555057707
lhand -25.694242821885144 23.725214588420926
lfingers 7.125019999999999
lthumb 0.938719099754592 53.77468451870316
rclavicle -1.38083992565545e-15 -1.8380835496115876e-15
rhumerus -24.23392198265961 -17.859419318360143 -79.06269995321081
rradius 30.918379581346574
rwrist -0.9420868225350008
rhand -18.552569832687155 22.746668528830106
rfingers 7.125019999999999
rthumb 7.710041800079177 -7.197161074802389
31
root 0.9782306034148882 18.07144119708307 2.43087985411447 -2.3665739450183665 -5.657587225414234 -2.429735038345108
lfemur -19.531517980940656 -2.8106904649850177 -19.69188963457395
ltibia 26.234869876999582
lfoot -2.453253377044991 -6.762316050659982
ltoes -2.9663159784522493
rfemur -1.4018415435759515 6.00544595201881 25.324387151184737
rtibia 53.031685129382694
rfoot 5.247008463844942 -1.4313901542327674
rtoes 3.1282766203312535
lowerback 9.152538499097828 2.159778039865093 2.2316346558650237
upperback -0.23265356192219658 2.8472313867567602 0.39544876252005
thorax -5.835763418350109 1.3221303255826837 -0.922177529422912
lowerneck -15.167156745269692 -3.325050365382649 -1.2512816906797453
upperneck 22.856494000185755 -4.546673921416467 0.3657350483633121
head 9.931390054650096 -2.154762665379448 -0.3666750493783957
lclavicle -1.3835896316693572e-15 -1.8401107512779236e-15
lhumerus -35.9822023766187 12.777281655365883 79.9304240160001
lradius 13.261690049578569
lwrist -2.278085170518986
lhand -25.785719524652556 23.553365613580418
lfingers 7.125019999999999
lthumb 0.7439110322091407 53.522078025316944
rclavicle -1.3828093877191738e-15 -1.839984072170353e-15
rhumerus -25.528561323898387 -19.35455905031491 -78.81331343845008
rradius 29.89089628785711
rwrist 0.200225629801003
rhand -18.894794199299447 22.504655075616885
rfingers 7.125019999999999
rthumb 7.556376702310907 -7.258016281020592
32
root 1.0193111725776618 18.167902051936483 3.1465639269528705 -2.510420725344473 -7.041974034760776 -1.4487421895487893
lfemur -16.09041197057872 -2.7767537471104538 -21.20220894142567
ltibia 26.31690586237354
lfoot -4.462558996278728 -5.2125399179069625
ltoes -0.17784344087741877
rfemur -7.489880367629925 6.913996657943349 23.707806133868807
rtibia 61.96020224456641
rfoot 9.394257934572167 -4.5658583370264
rtoes 9.263305362830494
lowerback 9.741125818356592 2.4109959308302353 1.4049379209632034
upperback -0.040985284585548315 3.012019350941631 0.11087832900910266
thorax -5.980611482198507 1.3874578674110987 -0.7699354282547259
lowerneck -15.270958004807294 -3.1843923040636883 -1.2380458018542415
upperneck 22.99285975142634 -4.340394427164579 0.38032544368555793
head 10.04116537308512 -2.0709217452463697 -0.35084716415956296
lclavicle -1.3859504977929406e-15 -1.8422768386599906e-15
lhumerus -34.96539738163197 11.050101822068925 80.58335191005357
lradius 14.944632477313222
lwrist -0.6517885967278314
lhand -26.06534353607265 23.818064874671247
lfingers 7.125019999999999
lthumb 0.4783137975824501 53.63519400085734
rclavicle -1.3843306953956266e-15 -1.8415870950385194e-15
rhumerus -26.57191656597903 -20.911886781357396 -78.73192273816842
rradius 28.622307123726777
rwrist 1.7865677579924082
rhand -18.654723440377506 22.10158935081699
rfingers 7.125019999999999
rthumb 7.735927836543049 -7.656224679036393
